<svg xmlns="http://www.w3.org/2000/svg" xmlns:xlink="http://www.w3.org/1999/xlink" width="375.64" height="774.578" viewBox="0 0 375.64 774.578">
  <defs>
    <clipPath id="clip-path">
      <path id="Trazado_651" data-name="Trazado 651" d="M186.853,180.428,206.1,251.635a4.346,4.346,0,0,1-7.891,3.422l-38.917-62.64a1.512,1.512,0,0,1,.677-2.209s11.925,2.018,24.821-10.776A1.51,1.51,0,0,1,186.853,180.428Z" fill="#ffc5b9"/>
    </clipPath>
  </defs>
  <g id="Grupo_97" data-name="Grupo 97" transform="translate(0 -37.422)">
    <g id="Grupo_96" data-name="Grupo 96">
      <path id="Trazado_semi_circulo_amarillo" data-name="Trazado semi circulo amarillo" d="M122.135,298.608h208.5c78.853,0,161.716,67.915,167.036,144.785l-.64,235.215H122.044Z" transform="translate(-122.036 133.392)" fill="#ffbd2d"/>
      <circle id="Elipse_8" data-name="Elipse 8" cx="21" cy="21" r="21" transform="translate(255.144 323)" fill="#ffbd2d"/>
      <circle id="Elipse_36" data-name="Elipse 36" cx="15.07" cy="15.07" r="15.07" transform="translate(95.888 337.966)" fill="#ffbd2d"/>
      <path id="Trazado_600" data-name="Trazado 600" d="M380.287,278.869v69.155a35.235,35.235,0,0,1-9.378,1.258,35.835,35.835,0,0,1,0-71.67A35.237,35.237,0,0,1,380.287,278.869Z" transform="translate(-5.287 -130.88)" fill="#ffbd2d"/>
      <path id="Trazado_615" data-name="Trazado 615" d="M228.927,134.183a88.945,88.945,0,0,1-106.888,87.065V47.119a88.945,88.945,0,0,1,106.888,87.065Z" transform="translate(-122.039 19.667)" fill="#ffbd2d"/>
      <circle id="Elipse_7" data-name="Elipse 7" cx="21.362" cy="21.362" r="21.362" transform="translate(241.362 313.896)" fill="#ff5d39"/>
      <g id="Grupo_18" data-name="Grupo 18" transform="translate(-64.063 110.535)">
        <path id="Trazado_636" data-name="Trazado 636" d="M315.041,219.956c.059-.183.12-.365.187-.546l.068-.179q.144-.357,0,0c-.1.237-.1.238.006,0l.083-.173q.126-.258.264-.509.231-.42.494-.819c.1-.16.216-.315.326-.472.308-.441-.3.346-.057.069a16.165,16.165,0,0,1,1.381-1.462q.213-.193.435-.379l.148-.122c.2-.158.2-.16,0,0s-.2.154.008,0l.157-.112q.235-.165.479-.321a16.83,16.83,0,0,1,1.774-.957c.334-.16-.6.229-.089.04.18-.066.359-.134.541-.2q.453-.154.917-.274.51-.132,1.029-.221c.474-.081.138.02-.127.011.18.006.391-.04.571-.053a12.144,12.144,0,0,1,2.106.049,2.979,2.979,0,0,0,2.97-2.97,3.054,3.054,0,0,0-2.97-2.969c-7.19-.768-14.237,4.217-16.426,10.983a2.994,2.994,0,0,0,2.074,3.653,3.036,3.036,0,0,0,3.652-2.074Z" fill="#ffc5b9"/>
      </g>
      <g id="Grupo_32" data-name="Grupo 32" transform="translate(-34.144 -92.079)">
        <path id="Trazado_635" data-name="Trazado 635" d="M179.722,188.43l-.6,1.215,1.848.644.745-1.481Z" transform="translate(-65.208 81.535)" fill="#325429"/>
        <path id="Trazado_637" data-name="Trazado 637" d="M172.551,190.053c-.61-3.911-1.026-7.846-1.324-11.755-.388-5.092-2.806-23.933,5.872-20.639,2.707,1.028,3.781,4.063,3.673,7-.25,6.854-2.7,15.231-4.364,21.534-.316,1.195-.629,2.393-.885,3.616Z" transform="translate(-65.208 81.535)" fill="#4b7e3e"/>
        <path id="Trazado_638" data-name="Trazado 638" d="M175.4,188.139c1.18-4.03,2.509-7.991,3.912-11.869,1.827-5.053,7.886-24.218,12.738-16.918,1.513,2.277,1.027,5.691-.265,8.449-3.013,6.432-8.227,13.269-12.028,18.5-.72.991-1.44,1.986-2.128,3.034Z" transform="translate(-65.208 81.535)" fill="#4b7e3e"/>
        <path id="Trazado_639" data-name="Trazado 639" d="M175.73,189.7c-1.974-3.639-4.111-7.177-6.323-10.617-2.881-4.482-12.789-21.684-17.39-13.475-1.436,2.561-.365,5.763,1.553,8.141,4.471,5.546,11.576,10.976,16.792,15.17.988.795,1.977,1.6,2.936,2.452Z" transform="translate(-65.208 81.535)" fill="#4b7e3e"/>
        <path id="Trazado_640" data-name="Trazado 640" d="M172.709,189.618c-3.65-2.327-7.389-4.484-11.141-6.519-4.887-2.651-22.646-13.373-22.276-3.813.116,2.981,2.75,5.346,5.681,6.567,6.835,2.849,15.9,4.339,22.658,5.62,1.282.243,2.566.49,3.855.8Z" transform="translate(-65.208 81.535)" fill="#4b7e3e"/>
        <g id="Grupo_27" data-name="Grupo 27" transform="translate(-65.208 81.535)">
          <g id="Grupo_26" data-name="Grupo 26" clip-path="url(#clip-path)">
            <path id="Trazado_641" data-name="Trazado 641" d="M186.853,180.428,206.1,251.635a4.346,4.346,0,0,1-7.891,3.422l-38.917-62.64a1.512,1.512,0,0,1,.677-2.209s11.925,2.018,24.821-10.776A1.51,1.51,0,0,1,186.853,180.428Z" fill="#ff5d39"/>
            <g id="Grupo_19" data-name="Grupo 19">
              <path id="Trazado_642" data-name="Trazado 642" d="M202.624,250.617a32.047,32.047,0,0,0,10.137-8.214,1.668,1.668,0,0,0,0-2.3,1.648,1.648,0,0,0-2.3,0,30.583,30.583,0,0,1-4.424,4.439c-.452.369-.507.41-.979.754q-.633.462-1.291.892a31.66,31.66,0,0,1-2.784,1.619,1.641,1.641,0,0,0-.584,2.229,1.667,1.667,0,0,0,2.228.584Z" fill="#ffc5b9"/>
            </g>
            <g id="Grupo_20" data-name="Grupo 20">
              <path id="Trazado_643" data-name="Trazado 643" d="M198.022,234.262a17.043,17.043,0,0,0,6.6-4.714,1.742,1.742,0,0,0,.477-1.151,1.629,1.629,0,0,0-2.781-1.152,15.246,15.246,0,0,1-1.228,1.3q-.318.3-.651.578c-.112.093-.225.184-.338.275-.264.211.223-.165.062-.048-.066.047-.13.1-.195.144a15,15,0,0,1-1.462.945q-.4.228-.812.43c-.131.064-.262.126-.394.186l-.177.079c-.322.145.359-.148.033-.013a1.789,1.789,0,0,0-.973.748,1.629,1.629,0,0,0,.584,2.228,1.572,1.572,0,0,0,1.255.164Z" fill="#ffc5b9"/>
            </g>
            <path id="Trazado_644" data-name="Trazado 644" d="M164.256,246.425q4.189-3.833,8.731-7.255" fill="none" stroke="#eea190" stroke-width="0.451"/>
            <g id="Grupo_21" data-name="Grupo 21">
              <path id="Trazado_645" data-name="Trazado 645" d="M188.974,221.5a24.723,24.723,0,0,0,10.717-7.151,1.629,1.629,0,0,0-2.3-2.3,23.2,23.2,0,0,1-2.047,2.089q-.544.489-1.121.941c.189-.148-.088.067-.122.092-.108.081-.217.162-.327.241-.2.142-.4.282-.6.418a22.751,22.751,0,0,1-2.526,1.476,16.506,16.506,0,0,1-2.535,1.056,1.629,1.629,0,1,0,.866,3.141Z" fill="#ffc5b9"/>
            </g>
            <g id="Grupo_22" data-name="Grupo 22">
              <path id="Trazado_646" data-name="Trazado 646" d="M180.711,229.494a8.115,8.115,0,0,0,3.606-1.032,1.626,1.626,0,0,0,.584-2.228,1.647,1.647,0,0,0-.973-.748,1.721,1.721,0,0,0-1.255.164,6.637,6.637,0,0,1-.666.329l.389-.164a6.429,6.429,0,0,1-1.575.43l.433-.058c-.18.024-.361.04-.543.05a1.712,1.712,0,0,0-1.151.477,1.629,1.629,0,0,0,1.151,2.78Z" fill="#ffc5b9"/>
            </g>
            <g id="Grupo_23" data-name="Grupo 23">
              <path id="Trazado_647" data-name="Trazado 647" d="M192.816,203.217q-.106.146-.216.288l.254-.33a14.379,14.379,0,0,1-2.543,2.533l.329-.254a14.4,14.4,0,0,1-1.492,1,1.629,1.629,0,0,0,1.644,2.813,16.24,16.24,0,0,0,4.837-4.409,1.64,1.64,0,0,0,.164-1.254,1.628,1.628,0,0,0-2-1.138l-.389.164a1.645,1.645,0,0,0-.585.584Z" fill="#ffc5b9"/>
            </g>
            <g id="Grupo_24" data-name="Grupo 24">
              <path id="Trazado_648" data-name="Trazado 648" d="M163.3,204.623a21.08,21.08,0,0,0,9.686-1.274,1.667,1.667,0,0,0,1.137-2,1.646,1.646,0,0,0-2-1.137,20.291,20.291,0,0,1-2.242.717q-.571.146-1.149.257c-.166.032-.331.062-.5.089-.111.019-.222.036-.333.053-.183.026-.222.032-.116.016s.066-.01-.118.013c-.111.013-.223.024-.335.035-.167.016-.335.031-.5.043q-.588.042-1.177.048a20.28,20.28,0,0,1-2.351-.114,1.634,1.634,0,0,0-1.629,1.628,1.675,1.675,0,0,0,1.629,1.629Z" fill="#ffc5b9"/>
            </g>
            <g id="Grupo_25" data-name="Grupo 25">
              <path id="Trazado_649" data-name="Trazado 649" d="M183.2,198.978a24.2,24.2,0,0,0,8.7-6.066,1.629,1.629,0,1,0-2.3-2.3,22.4,22.4,0,0,1-1.7,1.693q-.447.4-.915.775c-.069.056-.139.111-.209.166.177-.14.082-.064-.041.028-.16.12-.321.238-.485.353a22.152,22.152,0,0,1-1.971,1.245q-.523.292-1.062.557c-.179.088-.36.174-.541.257l-.243.109c-.046.02-.462.2-.1.046a1.8,1.8,0,0,0-.973.748,1.663,1.663,0,0,0-.164,1.255,1.644,1.644,0,0,0,2,1.137Z" fill="#ffc5b9"/>
            </g>
          </g>
        </g>
      </g>
      <g id="Grupo_29" data-name="Grupo 29" transform="translate(-64.063 110.535)">
        <path id="Trazado_652" data-name="Trazado 652" d="M338.382,212.6c4.716-7.555,6.788-17.1,6.517-26.007-.06-1.965-.3-4.053-1.527-5.587a2.8,2.8,0,0,0-1.6-1.082,2.629,2.629,0,0,0-2.637,1.535,7.611,7.611,0,0,0-.607,3.187q-.6,13.968-.145,27.954" fill="#4b7e3e"/>
        <g id="Grupo_28" data-name="Grupo 28">
          <path id="Trazado_653" data-name="Trazado 653" d="M339.974,213.531a48.488,48.488,0,0,0,6.753-27.331,10.484,10.484,0,0,0-2.051-6.5,4.14,4.14,0,0,0-6.036-.537c-1.865,1.631-1.905,4.169-2,6.46q-.166,4.167-.241,8.336-.164,9.319.137,18.638c.075,2.367,3.762,2.377,3.687,0q-.437-13.728.124-27.464c.031-.735.262-4.66,1.664-2.886,1.092,1.383,1.036,3.52,1.06,5.18a49,49,0,0,1-1.242,11.764,41.551,41.551,0,0,1-5.041,12.476c-1.248,2.025,1.939,3.879,3.183,1.86Z" fill="#4b7e3e"/>
        </g>
      </g>
      <g id="Grupo_31" data-name="Grupo 31" transform="translate(-64.063 110.535)">
        <path id="Trazado_654" data-name="Trazado 654" d="M338.733,212.63c8.774-2.912,20.651-4.236,29.77-2.726,1.912.317,4.205,1.129,4.473,3.049a3.273,3.273,0,0,1-2.3,3.244,9.256,9.256,0,0,1-4.254.193c-8.122-.931-19.76-1.777-27.692-3.76" fill="#4b7e3e"/>
        <g id="Grupo_30" data-name="Grupo 30">
          <path id="Trazado_655" data-name="Trazado 655" d="M339.223,214.407a64.95,64.95,0,0,1,27.011-2.972c1.2.133,4.192.215,4.828,1.521.265.545-.218,1.062-.663,1.336-1.013.625-2.423.416-3.545.3q-6.447-.652-12.892-1.366a115.115,115.115,0,0,1-14.739-2.376c-2.3-.567-3.286,2.987-.98,3.555a120.876,120.876,0,0,0,15.3,2.461c2.571.292,5.146.551,7.72.815,2.521.259,5.21.839,7.745.687,2.552-.154,5.162-1.541,5.734-4.228.558-2.618-1.394-4.57-3.646-5.448a24.518,24.518,0,0,0-7.225-1.15,63.115,63.115,0,0,0-7.853.019,71.347,71.347,0,0,0-17.778,3.289c-2.244.736-1.283,4.3.98,3.555Z" fill="#4b7e3e"/>
        </g>
      </g>
      <g id="Grupo_80" data-name="Grupo 80" transform="matrix(0.809, 0.588, -0.588, 0.809, -332.512, -87.144)">
        <path id="Trazado_763" data-name="Trazado 763" d="M632.281,61.451a15.794,15.794,0,0,1-8.609,14.063V116.59a6.606,6.606,0,1,1-13.21-.167c0-.241.019-.464.037-.686V76.052a15.794,15.794,0,0,1-.037-29.221V62.582a2.8,2.8,0,0,0,2.8,2.8H619.7a2.8,2.8,0,0,0,2.8-2.8V46.831A15.8,15.8,0,0,1,632.281,61.451Z" transform="translate(0 0)" fill="#ff5d39"/>
        <circle id="Elipse_29" data-name="Elipse 29" cx="2.737" cy="2.737" r="2.737" transform="translate(614.344 113.361)" fill="#ffc5b9"/>
      </g>
    </g>
    <g id="Grupo_92" data-name="Grupo 92" transform="translate(16.871 -235.703)">
      <path id="Trazado_967" data-name="Trazado 967" d="M116.569,294.09A10.459,10.459,0,0,1,119,301.419v13.692h-7.139V302.385a5.144,5.144,0,0,0-1.219-3.654,4.772,4.772,0,0,0-6.552,0,5.143,5.143,0,0,0-1.218,3.654v12.726H95.695v-31.08h7.182v10.794a7.677,7.677,0,0,1,2.982-2.478,9.544,9.544,0,0,1,4.242-.924A8.338,8.338,0,0,1,116.569,294.09Z" transform="translate(0 0)" fill="#ff5d39"/>
      <path id="Trazado_968" data-name="Trazado 968" d="M123.94,297.009a10.168,10.168,0,0,1,3.717-4.2,9.7,9.7,0,0,1,5.25-1.47,9.022,9.022,0,0,1,4.347,1.008,7.44,7.44,0,0,1,2.877,2.646v-3.318h7.182v23.436h-7.182v-3.318a7.763,7.763,0,0,1-2.919,2.646,9.022,9.022,0,0,1-4.347,1.008,9.527,9.527,0,0,1-5.208-1.491,10.283,10.283,0,0,1-3.717-4.242,15.454,15.454,0,0,1,0-12.7Zm14.7,2.142a5.048,5.048,0,0,0-7.267-.021,5.8,5.8,0,0,0-1.49,4.221,5.947,5.947,0,0,0,1.49,4.263,5,5,0,0,0,7.267.021,6.78,6.78,0,0,0,0-8.484Z" transform="translate(0 0)" fill="#ff5d39"/>
      <path id="Trazado_969" data-name="Trazado 969" d="M173.373,294.09a10.4,10.4,0,0,1,2.457,7.329v16.565h-7.139v-15.6a5.144,5.144,0,0,0-1.219-3.654,4.772,4.772,0,0,0-6.552,0,5.143,5.143,0,0,0-1.218,3.654v12.726H152.52V291.675H159.7v3.108a7.57,7.57,0,0,1,2.94-2.457,9.347,9.347,0,0,1,4.158-.9A8.5,8.5,0,0,1,173.373,294.09Z" transform="translate(0 0)" fill="#ff5d39"/>
      <path id="Trazado_970" data-name="Trazado 970" d="M202.863,317.981c.06-.76.056-1.227.056-1.957v-23.13h-7.19v3.32a7.419,7.419,0,0,0-2.87-2.64,8.958,8.958,0,0,0-4.35-1.01,9.714,9.714,0,0,0-5.25,1.47,10.174,10.174,0,0,0-3.72,4.2,15.5,15.5,0,0,0,0,12.7,10.228,10.228,0,0,0,3.72,4.24,9.569,9.569,0,0,0,5.25,1.5,8.858,8.858,0,0,0,4.33-1.03,8.016,8.016,0,0,0,2.89-2.67c-.12,1.8.01,3.54,0,5.01h7.134m-8.624-9.131a4.982,4.982,0,0,1-7.26-.02,5.917,5.917,0,0,1-1.49-4.26,5.769,5.769,0,0,1,1.49-4.22,4.865,4.865,0,0,1,3.63-1.53,4.811,4.811,0,0,1,3.63,1.55,6.778,6.778,0,0,1,0,8.48Z" transform="translate(0 0)" fill="#ff5d39"/>
      <path id="Trazado_971" data-name="Trazado 971" d="M208.442,297.735a10.168,10.168,0,0,1,3.717-4.2,9.712,9.712,0,0,1,5.25-1.47,9.022,9.022,0,0,1,4.347,1.008,7.439,7.439,0,0,1,2.877,2.646V292.4h7.182v23.436h-7.182v-3.318a7.763,7.763,0,0,1-2.919,2.646,9.022,9.022,0,0,1-4.347,1.008,9.519,9.519,0,0,1-5.208-1.491,10.283,10.283,0,0,1-3.717-4.242,15.464,15.464,0,0,1,0-12.705Zm14.7,2.142a5.049,5.049,0,0,0-7.267-.021,5.8,5.8,0,0,0-1.49,4.221,5.947,5.947,0,0,0,1.49,4.263,5,5,0,0,0,7.267.021,6.78,6.78,0,0,0,0-8.484Z" transform="translate(0 0)" fill="#ff5d39"/>
      <path id="Trazado_972" data-name="Trazado 972" d="M247.354,293.262a8.135,8.135,0,0,1,4.2-1.113v7.6H249.58a6.056,6.056,0,0,0-4.032,1.155q-1.344,1.156-1.344,4.053v10.878h-7.182V292.4H244.2v3.906A9.484,9.484,0,0,1,247.354,293.262Z" transform="translate(0 0)" fill="#ff5d39"/>
      <path id="Trazado_973" data-name="Trazado 973" d="M265.329,293.262a8.138,8.138,0,0,1,4.2-1.113v7.6h-1.974a6.055,6.055,0,0,0-4.032,1.155q-1.345,1.156-1.344,4.053v10.878H255V292.4h7.183v3.906A9.49,9.49,0,0,1,265.329,293.262Z" transform="translate(0 0)" fill="#ff5d39"/>
      <path id="Trazado_974" data-name="Trazado 974" d="M277.447,314.7a10.751,10.751,0,0,1-4.326-4.2,13.6,13.6,0,0,1,.021-12.747,10.833,10.833,0,0,1,4.367-4.221,13.879,13.879,0,0,1,12.433,0,10.842,10.842,0,0,1,4.368,4.221,12.462,12.462,0,0,1,1.6,6.363,12.317,12.317,0,0,1-1.618,6.363,10.928,10.928,0,0,1-4.41,4.221,13.171,13.171,0,0,1-6.236,1.47A12.919,12.919,0,0,1,277.447,314.7Zm9.7-6.258a6.006,6.006,0,0,0,1.448-4.326,6.123,6.123,0,0,0-1.406-4.326,4.773,4.773,0,0,0-6.951-.021,6.166,6.166,0,0,0-1.386,4.347,6.239,6.239,0,0,0,1.364,4.326,4.418,4.418,0,0,0,3.424,1.512A4.68,4.68,0,0,0,287.149,308.445Z" transform="translate(0 0)" fill="#ff5d39"/>
      <path id="Trazado_975" data-name="Trazado 975" d="M84.809,304.544h7.9a13.256,13.256,0,0,1-5,7.54,14.771,14.771,0,0,1-8.99,2.75,15.331,15.331,0,0,1-7.66-1.91,13.547,13.547,0,0,1-5.27-5.32,16.958,16.958,0,0,1,0-15.56,13.592,13.592,0,0,1,6.59-5.98,12.91,12.91,0,0,1,1.92-.69,15.924,15.924,0,0,1,4.02-.56c.13-.01.27-.01.4-.01a16.9,16.9,0,0,1,4.11.48c.07.02.13.03.19.05a12.777,12.777,0,0,1,2.08.73,13.282,13.282,0,0,1,7.61,9.07h-7.9a6.358,6.358,0,0,0-2.5-2.81,7.423,7.423,0,0,0-9.05,1.34,10.325,10.325,0,0,0,0,12.35,7.423,7.423,0,0,0,9.05,1.34A6.358,6.358,0,0,0,84.809,304.544Z" transform="translate(0 0)" fill="#ff5d39"/>
      <g id="Grupo_91" data-name="Grupo 91" transform="translate(69.519 273.125)">
        <path id="Trazado_976" data-name="Trazado 976" d="M69.519,274.845v1.83h2.49v7.55h.37a12.91,12.91,0,0,1,1.92-.69v-6.86h2.48v-1.83Z" transform="translate(-69.519 -273.125)" fill="#ff5d39"/>
        <path id="Trazado_977" data-name="Trazado 977" d="M83.019,276.765v4.05a1.654,1.654,0,0,1-.39,1.17,1.4,1.4,0,0,1-1.06.41,1.385,1.385,0,0,1-1.04-.41,1.654,1.654,0,0,1-.39-1.17v-4.05h-2.27v4.36a3.769,3.769,0,0,0,.36,1.7,1.193,1.193,0,0,0,.09.15c.13-.01.27-.01.4-.01a16.9,16.9,0,0,1,4.11.48,2.109,2.109,0,0,0,.19-.23v.28a12.777,12.777,0,0,1,2.08.73h.2v-7.46Zm-3.07-2.09v1.58l3.23-1.35v-1.78Z" transform="translate(-69.519 -273.125)" fill="#ff5d39"/>
      </g>
      <path id="Trazado_978" data-name="Trazado 978" d="M195.763,321.075a9.968,9.968,0,0,1-19.916,0H168.69a17.12,17.12,0,0,0,34.239,0Z" transform="translate(0 0)" fill="#ff5d39"/>
    </g>
  </g>
</svg>
