<svg xmlns="http://www.w3.org/2000/svg" width="232.007" height="64.891" viewBox="0 0 232.007 64.891">
  <g id="Grupo_92" data-name="Grupo 92" transform="translate(-63.899 -273.125)">
    <path id="Trazado_967" data-name="Trazado 967" d="M116.569,294.09A10.459,10.459,0,0,1,119,301.419v13.692h-7.139V302.385a5.144,5.144,0,0,0-1.219-3.654,4.772,4.772,0,0,0-6.552,0,5.143,5.143,0,0,0-1.218,3.654v12.726H95.695v-31.08h7.182v10.794a7.677,7.677,0,0,1,2.982-2.478,9.544,9.544,0,0,1,4.242-.924A8.338,8.338,0,0,1,116.569,294.09Z" transform="translate(0 0)" fill="#fffffc"/>
    <path id="Trazado_968" data-name="Trazado 968" d="M123.94,297.009a10.168,10.168,0,0,1,3.717-4.2,9.7,9.7,0,0,1,5.25-1.47,9.022,9.022,0,0,1,4.347,1.008,7.44,7.44,0,0,1,2.877,2.646v-3.318h7.182v23.436h-7.182v-3.318a7.763,7.763,0,0,1-2.919,2.646,9.022,9.022,0,0,1-4.347,1.008,9.527,9.527,0,0,1-5.208-1.491,10.283,10.283,0,0,1-3.717-4.242,15.454,15.454,0,0,1,0-12.7Zm14.7,2.142a5.048,5.048,0,0,0-7.267-.021,5.8,5.8,0,0,0-1.49,4.221,5.947,5.947,0,0,0,1.49,4.263,5,5,0,0,0,7.267.021,6.78,6.78,0,0,0,0-8.484Z" transform="translate(0 0)" fill="#fffffc"/>
    <path id="Trazado_969" data-name="Trazado 969" d="M173.373,294.09a10.4,10.4,0,0,1,2.457,7.329v16.565h-7.139v-15.6a5.144,5.144,0,0,0-1.219-3.654,4.772,4.772,0,0,0-6.552,0,5.143,5.143,0,0,0-1.218,3.654v12.726H152.52V291.675H159.7v3.108a7.57,7.57,0,0,1,2.94-2.457,9.347,9.347,0,0,1,4.158-.9A8.5,8.5,0,0,1,173.373,294.09Z" transform="translate(0 0)" fill="#fffffc"/>
    <path id="Trazado_970" data-name="Trazado 970" d="M202.863,317.981c.06-.76.056-1.227.056-1.957v-23.13h-7.19v3.32a7.419,7.419,0,0,0-2.87-2.64,8.958,8.958,0,0,0-4.35-1.01,9.714,9.714,0,0,0-5.25,1.47,10.174,10.174,0,0,0-3.72,4.2,15.5,15.5,0,0,0,0,12.7,10.228,10.228,0,0,0,3.72,4.24,9.569,9.569,0,0,0,5.25,1.5,8.858,8.858,0,0,0,4.33-1.03,8.016,8.016,0,0,0,2.89-2.67c-.12,1.8.01,3.54,0,5.01h7.134m-8.624-9.131a4.982,4.982,0,0,1-7.26-.02,5.917,5.917,0,0,1-1.49-4.26,5.769,5.769,0,0,1,1.49-4.22,4.865,4.865,0,0,1,3.63-1.53,4.811,4.811,0,0,1,3.63,1.55,6.778,6.778,0,0,1,0,8.48Z" transform="translate(0 0)" fill="#fffffc"/>
    <path id="Trazado_971" data-name="Trazado 971" d="M208.442,297.735a10.168,10.168,0,0,1,3.717-4.2,9.712,9.712,0,0,1,5.25-1.47,9.022,9.022,0,0,1,4.347,1.008,7.439,7.439,0,0,1,2.877,2.646V292.4h7.182v23.436h-7.182v-3.318a7.763,7.763,0,0,1-2.919,2.646,9.022,9.022,0,0,1-4.347,1.008,9.519,9.519,0,0,1-5.208-1.491,10.283,10.283,0,0,1-3.717-4.242,15.464,15.464,0,0,1,0-12.705Zm14.7,2.142a5.049,5.049,0,0,0-7.267-.021,5.8,5.8,0,0,0-1.49,4.221,5.947,5.947,0,0,0,1.49,4.263,5,5,0,0,0,7.267.021,6.78,6.78,0,0,0,0-8.484Z" transform="translate(0 0)" fill="#fffffc"/>
    <path id="Trazado_972" data-name="Trazado 972" d="M247.354,293.262a8.135,8.135,0,0,1,4.2-1.113v7.6H249.58a6.056,6.056,0,0,0-4.032,1.155q-1.344,1.156-1.344,4.053v10.878h-7.182V292.4H244.2v3.906A9.484,9.484,0,0,1,247.354,293.262Z" transform="translate(0 0)" fill="#fffffc"/>
    <path id="Trazado_973" data-name="Trazado 973" d="M265.329,293.262a8.138,8.138,0,0,1,4.2-1.113v7.6h-1.974a6.055,6.055,0,0,0-4.032,1.155q-1.345,1.156-1.344,4.053v10.878H255V292.4h7.183v3.906A9.49,9.49,0,0,1,265.329,293.262Z" transform="translate(0 0)" fill="#fffffc"/>
    <path id="Trazado_974" data-name="Trazado 974" d="M277.447,314.7a10.751,10.751,0,0,1-4.326-4.2,13.6,13.6,0,0,1,.021-12.747,10.833,10.833,0,0,1,4.367-4.221,13.879,13.879,0,0,1,12.433,0,10.842,10.842,0,0,1,4.368,4.221,12.462,12.462,0,0,1,1.6,6.363,12.317,12.317,0,0,1-1.618,6.363,10.928,10.928,0,0,1-4.41,4.221,13.171,13.171,0,0,1-6.236,1.47A12.919,12.919,0,0,1,277.447,314.7Zm9.7-6.258a6.006,6.006,0,0,0,1.448-4.326,6.123,6.123,0,0,0-1.406-4.326,4.773,4.773,0,0,0-6.951-.021,6.166,6.166,0,0,0-1.386,4.347,6.239,6.239,0,0,0,1.364,4.326,4.418,4.418,0,0,0,3.424,1.512A4.68,4.68,0,0,0,287.149,308.445Z" transform="translate(0 0)" fill="#fffffc"/>
    <path id="Trazado_975" data-name="Trazado 975" d="M84.809,304.544h7.9a13.256,13.256,0,0,1-5,7.54,14.771,14.771,0,0,1-8.99,2.75,15.331,15.331,0,0,1-7.66-1.91,13.547,13.547,0,0,1-5.27-5.32,16.958,16.958,0,0,1,0-15.56,13.592,13.592,0,0,1,6.59-5.98,12.91,12.91,0,0,1,1.92-.69,15.924,15.924,0,0,1,4.02-.56c.13-.01.27-.01.4-.01a16.9,16.9,0,0,1,4.11.48c.07.02.13.03.19.05a12.777,12.777,0,0,1,2.08.73,13.282,13.282,0,0,1,7.61,9.07h-7.9a6.358,6.358,0,0,0-2.5-2.81,7.423,7.423,0,0,0-9.05,1.34,10.325,10.325,0,0,0,0,12.35,7.423,7.423,0,0,0,9.05,1.34A6.358,6.358,0,0,0,84.809,304.544Z" transform="translate(0 0)" fill="#fffffc"/>
    <g id="Grupo_91" data-name="Grupo 91" transform="translate(69.519 273.125)">
      <path id="Trazado_976" data-name="Trazado 976" d="M69.519,274.845v1.83h2.49v7.55h.37a12.91,12.91,0,0,1,1.92-.69v-6.86h2.48v-1.83Z" transform="translate(-69.519 -273.125)" fill="#fffffc"/>
      <path id="Trazado_977" data-name="Trazado 977" d="M83.019,276.765v4.05a1.654,1.654,0,0,1-.39,1.17,1.4,1.4,0,0,1-1.06.41,1.385,1.385,0,0,1-1.04-.41,1.654,1.654,0,0,1-.39-1.17v-4.05h-2.27v4.36a3.769,3.769,0,0,0,.36,1.7,1.193,1.193,0,0,0,.09.15c.13-.01.27-.01.4-.01a16.9,16.9,0,0,1,4.11.48,2.109,2.109,0,0,0,.19-.23v.28a12.777,12.777,0,0,1,2.08.73h.2v-7.46Zm-3.07-2.09v1.58l3.23-1.35v-1.78Z" transform="translate(-69.519 -273.125)" fill="#fffffc"/>
    </g>
    <path id="Trazado_978" data-name="Trazado 978" d="M195.763,321.075a9.968,9.968,0,0,1-19.916,0H168.69a17.12,17.12,0,0,0,34.239,0Z" transform="translate(0 0)" fill="#fffffc"/>
  </g>
</svg>
