<svg xmlns="http://www.w3.org/2000/svg" width="101.044" height="28.261" viewBox="0 0 101.044 28.261">
  <g id="Grupo_92" data-name="Grupo 92" transform="translate(-63.899 -273.125)">
    <path id="Trazado_967" data-name="Trazado 967" d="M104.786,288.412a4.555,4.555,0,0,1,1.061,3.192v5.963h-3.109v-5.542a2.24,2.24,0,0,0-.531-1.591,2.078,2.078,0,0,0-2.854,0,2.24,2.24,0,0,0-.53,1.591v5.542H95.695V284.031h3.128v4.7a3.344,3.344,0,0,1,1.3-1.079,4.157,4.157,0,0,1,1.847-.4A3.631,3.631,0,0,1,104.786,288.412Z" transform="translate(-17.948 -6.156)" fill="#ffbd2d"/>
    <path id="Trazado_968" data-name="Trazado 968" d="M123.169,293.808a4.428,4.428,0,0,1,1.619-1.829,4.226,4.226,0,0,1,2.286-.64,3.929,3.929,0,0,1,1.893.439,3.24,3.24,0,0,1,1.253,1.152v-1.445h3.128v10.207H130.22v-1.445a3.381,3.381,0,0,1-1.271,1.152,3.929,3.929,0,0,1-1.893.439,4.149,4.149,0,0,1-2.268-.649,4.478,4.478,0,0,1-1.619-1.847,6.73,6.73,0,0,1,0-5.533Zm6.4.933a2.2,2.2,0,0,0-3.165-.009,2.525,2.525,0,0,0-.649,1.838,2.59,2.59,0,0,0,.649,1.857,2.178,2.178,0,0,0,3.165.009,2.953,2.953,0,0,0,0-3.695Z" transform="translate(-33.121 -10.281)" fill="#ffbd2d"/>
    <path id="Trazado_969" data-name="Trazado 969" d="M161.6,292.585a4.531,4.531,0,0,1,1.07,3.192v7.214h-3.109V296.2a2.24,2.24,0,0,0-.531-1.591,2.079,2.079,0,0,0-2.854,0,2.24,2.24,0,0,0-.53,1.591v5.542H152.52V291.533h3.128v1.354a3.3,3.3,0,0,1,1.28-1.07,4.071,4.071,0,0,1,1.811-.393A3.7,3.7,0,0,1,161.6,292.585Z" transform="translate(-50.025 -10.329)" fill="#ffbd2d"/>
    <path id="Trazado_970" data-name="Trazado 970" d="M188.929,303.634c.026-.331.024-.534.024-.852V292.708h-3.131v1.446a3.231,3.231,0,0,0-1.25-1.15,3.9,3.9,0,0,0-1.895-.44,4.23,4.23,0,0,0-2.286.64,4.431,4.431,0,0,0-1.62,1.829,6.753,6.753,0,0,0,0,5.531,4.455,4.455,0,0,0,1.62,1.847,4.168,4.168,0,0,0,2.286.653,3.858,3.858,0,0,0,1.886-.449,3.491,3.491,0,0,0,1.259-1.163c-.052.784,0,1.542,0,2.182h3.107m-3.756-3.977a2.17,2.17,0,0,1-3.162-.009,2.577,2.577,0,0,1-.649-1.855,2.513,2.513,0,0,1,.649-1.838,2.119,2.119,0,0,1,1.581-.666,2.1,2.1,0,0,1,1.581.675,2.952,2.952,0,0,1,0,3.693Z" transform="translate(-64.509 -10.973)" fill="#ffbd2d"/>
    <path id="Trazado_971" data-name="Trazado 971" d="M207.671,294.534a4.428,4.428,0,0,1,1.619-1.829,4.23,4.23,0,0,1,2.286-.64,3.929,3.929,0,0,1,1.893.439,3.24,3.24,0,0,1,1.253,1.152v-1.445h3.128v10.207h-3.128v-1.445a3.381,3.381,0,0,1-1.271,1.152,3.929,3.929,0,0,1-1.893.439,4.145,4.145,0,0,1-2.268-.649,4.478,4.478,0,0,1-1.619-1.847,6.735,6.735,0,0,1,0-5.533Zm6.4.933a2.2,2.2,0,0,0-3.165-.009,2.525,2.525,0,0,0-.649,1.838,2.59,2.59,0,0,0,.649,1.857,2.178,2.178,0,0,0,3.165.009,2.953,2.953,0,0,0,0-3.695Z" transform="translate(-80.821 -10.691)" fill="#ffbd2d"/>
    <path id="Trazado_972" data-name="Trazado 972" d="M241.522,292.634a3.543,3.543,0,0,1,1.829-.485v3.311h-.86a2.638,2.638,0,0,0-1.756.5,2.235,2.235,0,0,0-.585,1.765v4.738h-3.128V292.259h3.128v1.7A4.13,4.13,0,0,1,241.522,292.634Z" transform="translate(-97.724 -10.739)" fill="#ffbd2d"/>
    <path id="Trazado_973" data-name="Trazado 973" d="M259.5,292.634a3.544,3.544,0,0,1,1.83-.485v3.311h-.86a2.637,2.637,0,0,0-1.756.5,2.234,2.234,0,0,0-.585,1.765v4.738H255V292.259h3.128v1.7A4.133,4.133,0,0,1,259.5,292.634Z" transform="translate(-107.871 -10.739)" fill="#ffbd2d"/>
    <path id="Trazado_974" data-name="Trazado 974" d="M274.115,301.924a4.683,4.683,0,0,1-1.884-1.829,5.921,5.921,0,0,1,.009-5.552,4.718,4.718,0,0,1,1.9-1.838,6.045,6.045,0,0,1,5.415,0,4.722,4.722,0,0,1,1.9,1.838,5.427,5.427,0,0,1,.7,2.771,5.365,5.365,0,0,1-.7,2.771,4.76,4.76,0,0,1-1.921,1.838,5.736,5.736,0,0,1-2.716.64A5.626,5.626,0,0,1,274.115,301.924Zm4.225-2.725a2.616,2.616,0,0,0,.631-1.884,2.667,2.667,0,0,0-.612-1.884,2.079,2.079,0,0,0-3.027-.009,2.685,2.685,0,0,0-.6,1.893,2.718,2.718,0,0,0,.594,1.884,1.925,1.925,0,0,0,1.491.659A2.039,2.039,0,0,0,278.341,299.2Z" transform="translate(-117.212 -10.691)" fill="#ffbd2d"/>
    <path id="Trazado_975" data-name="Trazado 975" d="M73.006,293.4h3.441a5.773,5.773,0,0,1-2.178,3.284,6.433,6.433,0,0,1-3.915,1.2,6.677,6.677,0,0,1-3.336-.832,5.9,5.9,0,0,1-2.3-2.317,7.386,7.386,0,0,1,0-6.777,5.92,5.92,0,0,1,2.87-2.6,5.623,5.623,0,0,1,.836-.3,6.936,6.936,0,0,1,1.751-.244c.057,0,.118,0,.174,0a7.361,7.361,0,0,1,1.79.209c.03.009.057.013.083.022a5.562,5.562,0,0,1,.906.318,5.784,5.784,0,0,1,3.314,3.95H73.006a2.769,2.769,0,0,0-1.089-1.224,3.233,3.233,0,0,0-3.941.584,4.5,4.5,0,0,0,0,5.379,3.233,3.233,0,0,0,3.941.584A2.769,2.769,0,0,0,73.006,293.4Z" transform="translate(0 -6.593)" fill="#ffbd2d"/>
    <g id="Grupo_91" data-name="Grupo 91" transform="translate(66.347 273.125)">
      <path id="Trazado_976" data-name="Trazado 976" d="M69.519,274.845v.8H70.6v3.288h.161a5.623,5.623,0,0,1,.836-.3v-2.988h1.08v-.8Z" transform="translate(-69.519 -274.096)" fill="#ffbd2d"/>
      <path id="Trazado_977" data-name="Trazado 977" d="M80.112,274.71v1.764a.72.72,0,0,1-.17.51.61.61,0,0,1-.462.179.6.6,0,0,1-.453-.179.72.72,0,0,1-.17-.51V274.71h-.989v1.9a1.642,1.642,0,0,0,.157.74.518.518,0,0,0,.039.065c.057,0,.118,0,.174,0a7.361,7.361,0,0,1,1.79.209.918.918,0,0,0,.083-.1v.122a5.562,5.562,0,0,1,.906.318H81.1V274.71Zm-1.337-.91v.688l1.407-.588v-.775Z" transform="translate(-74.232 -273.125)" fill="#ffbd2d"/>
    </g>
    <path id="Trazado_978" data-name="Trazado 978" d="M180.481,321.075a4.341,4.341,0,0,1-8.674,0H168.69a7.456,7.456,0,0,0,14.912,0Z" transform="translate(-59.152 -27.067)" fill="#ffbd2d"/>
  </g>
</svg>
